<?xml version="1.0" encoding="utf-8"?>
<svg xmlns="http://www.w3.org/2000/svg" xmlns:xlink="http://www.w3.org/1999/xlink" style="margin: auto; background: rgba(0, 0, 0, 0) none repeat scroll 0% 0%; display: block; shape-rendering: auto;" width="200px" height="200px" viewBox="0 0 100 100" preserveAspectRatio="xMidYMid">
<g transform="rotate(0 50 50)">
  <rect x="47" y="24" rx="3" ry="6" width="6" height="12" fill="#feb700">
    <animate attributeName="opacity" values="1;0" keyTimes="0;1" dur="0.6993006993006994s" begin="-0.641025641025641s" repeatCount="indefinite"></animate>
  </rect>
</g><g transform="rotate(30 50 50)">
  <rect x="47" y="24" rx="3" ry="6" width="6" height="12" fill="#feb700">
    <animate attributeName="opacity" values="1;0" keyTimes="0;1" dur="0.6993006993006994s" begin="-0.5827505827505828s" repeatCount="indefinite"></animate>
  </rect>
</g><g transform="rotate(60 50 50)">
  <rect x="47" y="24" rx="3" ry="6" width="6" height="12" fill="#feb700">
    <animate attributeName="opacity" values="1;0" keyTimes="0;1" dur="0.6993006993006994s" begin="-0.5244755244755245s" repeatCount="indefinite"></animate>
  </rect>
</g><g transform="rotate(90 50 50)">
  <rect x="47" y="24" rx="3" ry="6" width="6" height="12" fill="#feb700">
    <animate attributeName="opacity" values="1;0" keyTimes="0;1" dur="0.6993006993006994s" begin="-0.4662004662004662s" repeatCount="indefinite"></animate>
  </rect>
</g><g transform="rotate(120 50 50)">
  <rect x="47" y="24" rx="3" ry="6" width="6" height="12" fill="#feb700">
    <animate attributeName="opacity" values="1;0" keyTimes="0;1" dur="0.6993006993006994s" begin="-0.40792540792540793s" repeatCount="indefinite"></animate>
  </rect>
</g><g transform="rotate(150 50 50)">
  <rect x="47" y="24" rx="3" ry="6" width="6" height="12" fill="#feb700">
    <animate attributeName="opacity" values="1;0" keyTimes="0;1" dur="0.6993006993006994s" begin="-0.34965034965034963s" repeatCount="indefinite"></animate>
  </rect>
</g><g transform="rotate(180 50 50)">
  <rect x="47" y="24" rx="3" ry="6" width="6" height="12" fill="#feb700">
    <animate attributeName="opacity" values="1;0" keyTimes="0;1" dur="0.6993006993006994s" begin="-0.2913752913752914s" repeatCount="indefinite"></animate>
  </rect>
</g><g transform="rotate(210 50 50)">
  <rect x="47" y="24" rx="3" ry="6" width="6" height="12" fill="#feb700">
    <animate attributeName="opacity" values="1;0" keyTimes="0;1" dur="0.6993006993006994s" begin="-0.2331002331002331s" repeatCount="indefinite"></animate>
  </rect>
</g><g transform="rotate(240 50 50)">
  <rect x="47" y="24" rx="3" ry="6" width="6" height="12" fill="#feb700">
    <animate attributeName="opacity" values="1;0" keyTimes="0;1" dur="0.6993006993006994s" begin="-0.17482517482517482s" repeatCount="indefinite"></animate>
  </rect>
</g><g transform="rotate(270 50 50)">
  <rect x="47" y="24" rx="3" ry="6" width="6" height="12" fill="#feb700">
    <animate attributeName="opacity" values="1;0" keyTimes="0;1" dur="0.6993006993006994s" begin="-0.11655011655011654s" repeatCount="indefinite"></animate>
  </rect>
</g><g transform="rotate(300 50 50)">
  <rect x="47" y="24" rx="3" ry="6" width="6" height="12" fill="#feb700">
    <animate attributeName="opacity" values="1;0" keyTimes="0;1" dur="0.6993006993006994s" begin="-0.05827505827505827s" repeatCount="indefinite"></animate>
  </rect>
</g><g transform="rotate(330 50 50)">
  <rect x="47" y="24" rx="3" ry="6" width="6" height="12" fill="#feb700">
    <animate attributeName="opacity" values="1;0" keyTimes="0;1" dur="0.6993006993006994s" begin="0s" repeatCount="indefinite"></animate>
  </rect>
</g>
<!-- [ldio] generated by https://loading.io/ --></svg>