<?xml version="1.0" encoding="utf-8"?>
<!-- Generator: Adobe Illustrator 25.1.0, SVG Export Plug-In . SVG Version: 6.00 Build 0)  -->
<svg version="1.1" xmlns="http://www.w3.org/2000/svg" xmlns:xlink="http://www.w3.org/1999/xlink" x="0px" y="0px"
	 viewBox="0 0 2000 2000" style="enable-background:new 0 0 2000 2000;" xml:space="preserve">
<style type="text/css">
	.st0{fill:none;stroke:#FFFFFF;stroke-miterlimit:10; opacity: 10%;}
	.st1{fill:none;stroke:#FFFFFF; opacity: 10%;}
	.st2{display:none; opacity: 10%;}
	.st3{display:inline; opacity: 10%;}
</style>
<g id="Layer_1">
</g>
<g id="Layer_2">
	<g>
		<g>
			<polygon class="st0" points="616.63,167.33 616.63,1572.03 579.41,1594.52 497.19,1551.08 497.96,246.46 452.2,220.86 
				367.66,263.51 368.43,1572.81 324.22,1594.52 248.99,1551.08 249.76,242.57 198.57,220.86 119.44,254.21 120.23,1518.52 
				0,1356.41 0,383.74 181.5,69.6 324.22,145.62 452.2,80.47 			"/>
			<path class="st0" d="M1242.58,69.6l-85.32-54.31H1006L746.37,167.05v1351.47l211.55,118.67l285.43-162.9L1242.58,69.6z
				 M877.26,1528.59l-12.41-10.86V146.39l11.62-11.62h247.43l0.77,1393.82H877.26z"/>
			<path class="st0" d="M2000,360.47L1383.75,15.29v1589.32l76,32.58L2000,1335.47V934.45l-291.26-168.32L2000,610.23V360.47z
				 M1880.94,1010.46v248.22l-379.3,214.85V794.05L1880.94,1010.46z M1880.94,533.44l-379.3,217.19V221.63h22.5l356.81,206.34
				V533.44z"/>
		</g>
		<g>
			<path class="st1" d="M576.45,1787.59l-0.26,42.93l-3.67-10.47c-0.35-0.7-0.65-1.48-0.92-2.36c-0.26-0.87-0.57-1.66-0.92-2.36
				c-0.88-2.44-1.79-4.58-2.75-6.41c-0.96-1.83-2.49-3.44-4.58-4.84c-1.4-0.87-2.97-1.57-4.71-2.09c-1.75-0.52-3.49-0.87-5.24-1.05
				c-1.05,0-2.05-0.04-3.01-0.13c-0.96-0.09-1.96-0.13-3.01-0.13l-32.2-0.26c-0.35,0.18-0.7,0.26-1.05,0.26c-0.35,0-0.79,0-1.31,0
				c-2.09,0-4.15,0.09-6.15,0.26c-2.01,0.18-3.53,0.78-4.58,1.83c-0.7,0.7-1.14,1.88-1.31,3.53c-0.18,1.66-0.26,3.45-0.26,5.37
				c0,0.18,0,0.35,0,0.52c0,0.18,0,0.39,0,0.65c0,0.26,0,0.48,0,0.65v62.57h37.17c1.05,0,2.09,0,3.14,0s2.09,0,3.14,0
				c2.09,0,4.06-0.13,5.89-0.39c1.83-0.26,3.53-1,5.1-2.22c0.35-0.35,0.7-0.65,1.05-0.92c0.35-0.26,0.61-0.56,0.78-0.92
				c0.87-0.7,1.53-1.4,1.96-2.09c0.43-0.7,0.92-1.57,1.44-2.62l5.5-11.52v61.78l-2.36-6.02c-0.18-0.52-0.39-1.13-0.65-1.83
				c-0.26-0.7-0.48-1.39-0.65-2.09c-0.18-0.35-0.31-0.65-0.39-0.92c-0.09-0.26-0.22-0.57-0.39-0.92c-0.88-2.79-1.88-5.45-3.01-7.98
				c-1.14-2.53-2.66-4.32-4.58-5.37c-1.05-0.7-2.09-1.22-3.14-1.57c-1.05-0.35-2.09-0.61-3.14-0.79c-1.05-0.17-2.14-0.26-3.27-0.26
				c-1.14,0-2.4,0-3.8,0c-0.18,0-0.39,0-0.65,0s-0.48,0-0.65,0h-38.48v64.19c0,0.87,0.04,1.83,0.13,2.87c0.09,1.05,0.22,2,0.39,2.87
				c0.35,1.91,0.83,3.61,1.44,5.09c0.61,1.48,1.44,2.48,2.49,3c1.39,0.7,2.66,1.13,3.8,1.3c1.13,0.18,2.31,0.26,3.53,0.26
				c0.52,0,1,0,1.44,0c0.43,0,0.92-0.09,1.44-0.26c0.35,0,0.78,0,1.31,0c0.52,0,1.05,0,1.57,0l42.93-0.26
				c0.52,0.18,1.05,0.26,1.57,0.26c0.52,0,1.05,0,1.57,0c0.35,0.18,0.79,0.26,1.31,0.26c0.52,0,1.05,0,1.57,0
				c0.87,0,1.74-0.09,2.62-0.26c0.87-0.17,1.74-0.43,2.62-0.79c1.39-0.7,2.57-2.09,3.53-4.19c0.96-2.09,1.87-4.45,2.75-7.07
				c0.17-0.53,0.35-1.09,0.52-1.7c0.17-0.61,0.35-1.18,0.52-1.7c0.35-1.05,0.74-2.09,1.18-3.14c0.43-1.05,0.83-2,1.18-2.88l3.4-8.38
				l-1.31,42.41H445.29l6.02-1.83c1.39-0.17,3.01-0.52,4.84-1.05c1.83-0.52,3.71-1.05,5.63-1.57c1.74-0.7,3.49-1.35,5.24-1.96
				c1.74-0.61,3.31-1.26,4.71-1.96c0.87-0.35,1.66-0.79,2.36-1.31c0.7-0.52,1.22-0.96,1.57-1.31c0.87-1.05,1.48-2.23,1.83-3.53
				c0.35-1.31,0.61-2.66,0.78-4.06c0-0.52,0-1.05,0-1.57c0-0.52,0-1.05,0-1.57c0-0.87,0-1.66,0-2.36c0-0.7,0-1.4,0-2.09v-141.88
				c0-0.7,0-1.53,0-2.49c0-0.96,0-1.79,0-2.49c0-1.74-0.13-3.36-0.39-4.84c-0.26-1.48-1.01-2.92-2.23-4.32
				c-0.35-0.35-0.88-0.78-1.57-1.31c-0.7-0.52-1.48-0.96-2.36-1.31c-1.4-0.7-2.97-1.35-4.71-1.96c-1.75-0.61-3.49-1.26-5.24-1.96
				c-1.92-0.52-3.8-1.05-5.63-1.57c-1.83-0.52-3.45-0.96-4.84-1.31l-6.02-2.09H576.45z"/>
			<path class="st1" d="M668.85,1816.65l52.09,131.41l48.43-131.68c0.35-0.52,0.65-1.18,0.92-1.96c0.26-0.79,0.48-1.61,0.65-2.49
				c0.52-1.74,0.92-3.44,1.18-5.1c0.26-1.66,0.39-3.01,0.39-4.06c0-0.35,0-0.61,0-0.79c0-0.17-0.09-0.35-0.26-0.52
				c-0.52-1.74-2.01-3.31-4.45-4.71c-2.45-1.39-5.06-2.62-7.85-3.66c-1.05-0.53-2.01-0.96-2.88-1.31c-0.88-0.35-1.75-0.7-2.62-1.05
				l-7.07-3.14h73.04l-5.76,2.09c-0.35,0.35-0.74,0.57-1.18,0.65c-0.44,0.09-0.83,0.22-1.18,0.39c-1.05,0.35-2.18,0.74-3.4,1.18
				c-1.22,0.44-2.36,0.83-3.4,1.18c-3.14,0.87-6.02,1.92-8.64,3.14c-2.62,1.22-4.36,2.62-5.24,4.19c-0.52,0.88-1.05,1.75-1.57,2.62
				c-0.52,0.88-1.05,1.75-1.57,2.62c-0.52,1.05-1.09,2.18-1.7,3.4c-0.61,1.22-1.18,2.53-1.7,3.93c-1.57,3.32-4.97,12-10.21,26.05
				c-5.24,14.05-10.82,29.36-16.75,45.94c-0.18,0.7-0.39,1.35-0.65,1.96c-0.26,0.61-0.48,1.18-0.65,1.7
				c-6.11,16.93-11.69,32.77-16.75,47.51c-5.06,14.75-8.21,24.04-9.42,27.88c-0.52,1.75-1.01,3.4-1.44,4.97
				c-0.44,1.57-0.92,3.14-1.44,4.71v0.26c-0.35,1.57-0.78,3.19-1.31,4.84c-0.52,1.66-1.05,3.36-1.57,5.1h-13.35
				c-0.7-1.57-1.35-2.97-1.96-4.19c-0.61-1.22-1.18-2.53-1.7-3.93c-0.52-1.22-1.05-2.49-1.57-3.8c-0.52-1.31-1.05-2.75-1.57-4.32
				c-2.45-7.5-6.2-17.8-11.26-30.89c-5.06-13.09-10.47-26.79-16.23-41.1c-0.18-0.7-0.44-1.44-0.79-2.23
				c-0.35-0.79-0.7-1.61-1.05-2.49c-6.98-17.28-13.48-33.25-19.5-47.91c-6.02-14.66-9.91-24.08-11.65-28.27
				c-0.52-1.05-0.96-2.05-1.31-3.01c-0.35-0.96-0.7-1.87-1.05-2.75c-0.18-0.17-0.26-0.39-0.26-0.65c0-0.26-0.09-0.48-0.26-0.65
				c-0.35-0.87-0.74-1.79-1.18-2.75c-0.44-0.96-0.92-1.96-1.44-3.01c-0.88-1.57-2.4-2.92-4.58-4.06c-2.18-1.13-4.67-2.22-7.46-3.27
				c-0.18,0-0.39-0.09-0.65-0.26c-0.26-0.17-0.57-0.26-0.92-0.26c-1.22-0.52-2.49-1.05-3.8-1.57c-1.31-0.52-2.58-1.13-3.8-1.83
				l-5.24-3.14h77.23l-6.54,2.88c-1.05,0.52-2.18,1.01-3.4,1.44c-1.22,0.44-2.53,0.92-3.93,1.44c-2.45,0.88-4.67,1.88-6.68,3.01
				c-2.01,1.14-3.27,2.58-3.8,4.32c0,0.18,0,0.35,0,0.52c-0.18,0.18-0.26,0.31-0.26,0.39c0,0.09,0,0.22,0,0.39
				c0,1.05,0.17,2.23,0.52,3.53c0.35,1.31,0.7,2.75,1.05,4.32c0.17,0.35,0.3,0.7,0.39,1.05c0.09,0.35,0.22,0.7,0.39,1.05
				c0.35,1.05,0.65,1.96,0.92,2.75c0.26,0.78,0.48,1.53,0.65,2.22V1816.65z"/>
			<path class="st1" d="M976.44,1787.59l-0.26,42.93l-3.67-10.47c-0.35-0.7-0.65-1.48-0.92-2.36c-0.26-0.87-0.57-1.66-0.92-2.36
				c-0.88-2.44-1.79-4.58-2.75-6.41c-0.96-1.83-2.49-3.44-4.58-4.84c-1.4-0.87-2.97-1.57-4.71-2.09c-1.75-0.52-3.49-0.87-5.24-1.05
				c-1.05,0-2.05-0.04-3.01-0.13c-0.96-0.09-1.96-0.13-3.01-0.13l-32.2-0.26c-0.35,0.18-0.7,0.26-1.05,0.26c-0.35,0-0.79,0-1.31,0
				c-2.09,0-4.15,0.09-6.15,0.26c-2.01,0.18-3.53,0.78-4.58,1.83c-0.7,0.7-1.14,1.88-1.31,3.53c-0.18,1.66-0.26,3.45-0.26,5.37
				c0,0.18,0,0.35,0,0.52c0,0.18,0,0.39,0,0.65c0,0.26,0,0.48,0,0.65v62.57h37.17c1.05,0,2.09,0,3.14,0s2.09,0,3.14,0
				c2.09,0,4.06-0.13,5.89-0.39c1.83-0.26,3.53-1,5.1-2.22c0.35-0.35,0.7-0.65,1.05-0.92c0.35-0.26,0.61-0.56,0.78-0.92
				c0.87-0.7,1.53-1.4,1.96-2.09c0.43-0.7,0.92-1.57,1.44-2.62l5.5-11.52v61.78l-2.36-6.02c-0.18-0.52-0.39-1.13-0.65-1.83
				c-0.26-0.7-0.48-1.39-0.65-2.09c-0.18-0.35-0.31-0.65-0.39-0.92c-0.09-0.26-0.22-0.57-0.39-0.92c-0.88-2.79-1.88-5.45-3.01-7.98
				c-1.14-2.53-2.66-4.32-4.58-5.37c-1.05-0.7-2.09-1.22-3.14-1.57c-1.05-0.35-2.09-0.61-3.14-0.79c-1.05-0.17-2.14-0.26-3.27-0.26
				c-1.14,0-2.4,0-3.8,0c-0.18,0-0.39,0-0.65,0s-0.48,0-0.65,0h-38.48v64.19c0,0.87,0.04,1.83,0.13,2.87c0.09,1.05,0.22,2,0.39,2.87
				c0.35,1.91,0.83,3.61,1.44,5.09c0.61,1.48,1.44,2.48,2.49,3c1.39,0.7,2.66,1.13,3.8,1.3c1.13,0.18,2.31,0.26,3.53,0.26
				c0.52,0,1,0,1.44,0c0.43,0,0.92-0.09,1.44-0.26c0.35,0,0.78,0,1.31,0c0.52,0,1.05,0,1.57,0l42.93-0.26
				c0.52,0.18,1.05,0.26,1.57,0.26c0.52,0,1.05,0,1.57,0c0.35,0.18,0.79,0.26,1.31,0.26c0.52,0,1.05,0,1.57,0
				c0.87,0,1.74-0.09,2.62-0.26c0.87-0.17,1.74-0.43,2.62-0.79c1.39-0.7,2.57-2.09,3.53-4.19c0.96-2.09,1.87-4.45,2.75-7.07
				c0.17-0.53,0.35-1.09,0.52-1.7c0.17-0.61,0.35-1.18,0.52-1.7c0.35-1.05,0.74-2.09,1.18-3.14c0.43-1.05,0.83-2,1.18-2.88l3.4-8.38
				l-1.31,42.41H845.29l6.02-1.83c1.39-0.17,3.01-0.52,4.84-1.05c1.83-0.52,3.71-1.05,5.63-1.57c1.74-0.7,3.49-1.35,5.24-1.96
				c1.74-0.61,3.31-1.26,4.71-1.96c0.87-0.35,1.66-0.79,2.36-1.31c0.7-0.52,1.22-0.96,1.57-1.31c0.87-1.05,1.48-2.23,1.83-3.53
				c0.35-1.31,0.61-2.66,0.78-4.06c0-0.52,0-1.05,0-1.57c0-0.52,0-1.05,0-1.57c0-0.87,0-1.66,0-2.36c0-0.7,0-1.4,0-2.09v-141.88
				c0-0.7,0-1.53,0-2.49c0-0.96,0-1.79,0-2.49c0-1.74-0.13-3.36-0.39-4.84c-0.26-1.48-1.01-2.92-2.23-4.32
				c-0.35-0.35-0.88-0.78-1.57-1.31c-0.7-0.52-1.48-0.96-2.36-1.31c-1.4-0.7-2.97-1.35-4.71-1.96c-1.75-0.61-3.49-1.26-5.24-1.96
				c-1.92-0.52-3.8-1.05-5.63-1.57c-1.83-0.52-3.45-0.96-4.84-1.31l-6.02-2.09H976.44z"/>
			<path class="st1" d="M1179.45,1952.9c-3.75-4.1-6.5-7.11-8.25-9.03c-1.05-1.05-2.27-2.27-3.67-3.66c-1.4-1.4-3.75-3.84-7.07-7.33
				c-3.66-3.84-7.33-7.68-10.99-11.52c-3.66-3.84-7.42-7.76-11.26-11.78c-0.7-0.87-1.48-1.7-2.36-2.49
				c-0.88-0.78-1.66-1.61-2.36-2.49c-17.1-17.8-33.34-34.42-48.69-49.87c-15.36-15.44-26.36-26.39-32.99-32.85v113.09
				c0,0.7,0,1.53,0,2.49c0,0.96,0,1.96,0,3.01c-0.18,1.05-0.26,2.23-0.26,3.53c0,1.31,0,2.66,0,4.06c0,1.05,0,2.09,0,3.14
				c0,1.05,0,2.09,0,3.14c0.17,2.79,0.48,5.59,0.92,8.38c0.43,2.8,1.09,5.07,1.96,6.81c0.87,1.75,2.57,3.23,5.11,4.45
				c2.53,1.22,5.19,2.36,7.98,3.4c0.87,0.35,1.66,0.65,2.36,0.92c0.7,0.26,1.4,0.48,2.09,0.65l7.33,2.36h-68.33l4.45-2.09
				c0.87-0.17,1.7-0.43,2.49-0.79c0.79-0.35,1.61-0.7,2.49-1.05c2.97-1.22,5.8-2.53,8.51-3.93c2.7-1.39,4.58-3.05,5.63-4.97
				c0.87-1.57,1.44-4.32,1.7-8.25c0.26-3.93,0.48-8.16,0.65-12.7c0-2.09,0-4.19,0-6.28c0-2.09,0-4.01,0-5.76v-147.91h15.18
				c1.92,2.45,4.19,5.37,6.81,8.77c2.62,3.4,6.11,7.37,10.47,11.91c7.33,7.51,15.4,15.8,24.21,24.87
				c8.81,9.08,17.76,18.32,26.83,27.75c18.5,19.37,35.82,37.43,51.96,54.19c16.14,16.76,26.05,26.79,29.71,30.1v-111.52
				c0-1.22,0-2.57,0-4.06c0-1.48,0-3.01,0-4.58c0-1.57,0-3.1,0-4.58c0-1.48,0-2.92,0-4.32c0-3.49-0.09-6.67-0.26-9.55
				c-0.18-2.88-0.61-4.93-1.31-6.15c-0.88-1.74-2.58-3.23-5.1-4.45c-2.53-1.22-5.19-2.36-7.98-3.4c-0.35-0.17-0.61-0.3-0.79-0.39
				c-0.18-0.09-0.35-0.13-0.52-0.13c-0.88-0.35-1.75-0.7-2.62-1.05c-0.88-0.35-1.75-0.7-2.62-1.05l-4.45-2.36h68.32l-7.33,3.14
				c-0.52,0.35-1.01,0.61-1.44,0.79c-0.44,0.18-0.92,0.35-1.44,0.52c-2.79,1.22-5.28,2.4-7.46,3.53c-2.18,1.14-4.15,2.58-5.89,4.32
				c-0.87,0.88-1.53,2.92-1.96,6.15c-0.44,3.23-0.74,6.68-0.92,10.34c-0.18,2.09-0.26,4.15-0.26,6.15c0,2.01,0,3.8,0,5.37
				c0,1.75,0,3.58,0,5.5v148.43h-12.57C1191.88,1966.65,1183.2,1957.01,1179.45,1952.9z"/>
			<path class="st1" d="M1277.22,1787.59h123.56l13.61-4.97l-0.52,58.64l-4.19-13.87c-0.18-0.17-0.31-0.39-0.39-0.65
				c-0.09-0.26-0.13-0.48-0.13-0.65c-0.35-1.05-0.65-2.09-0.92-3.14c-0.26-1.05-0.57-2.09-0.92-3.14c-1.22-3.49-2.53-6.76-3.93-9.82
				c-1.4-3.05-3.32-5.02-5.76-5.89c-0.88-0.35-1.75-0.61-2.62-0.79c-0.88-0.17-1.75-0.26-2.62-0.26c-0.88-0.17-1.75-0.26-2.62-0.26
				c-0.88,0-1.83,0-2.88,0c-0.35,0-0.65,0-0.92,0c-0.26,0-0.57,0-0.92,0h-34.55v153.14c0,2.97,0.13,5.54,0.39,7.72
				c0.26,2.18,1.26,4.32,3.01,6.41c1.05,1.4,2.92,2.58,5.63,3.53c2.7,0.96,5.54,1.79,8.51,2.49c0.52,0.18,1,0.35,1.44,0.52
				c0.43,0.18,0.92,0.26,1.44,0.26c1.39,0.35,2.7,0.74,3.93,1.18c1.22,0.44,2.36,0.83,3.4,1.18l5.76,2.09h-88.74l6.02-1.83
				c1.39-0.17,3.01-0.52,4.84-1.05c1.83-0.52,3.71-1.05,5.63-1.57c1.74-0.7,3.49-1.35,5.24-1.96c1.74-0.61,3.31-1.26,4.71-1.96
				c0.87-0.35,1.66-0.79,2.36-1.31c0.7-0.52,1.22-0.96,1.57-1.31c0.52-0.87,1-1.7,1.44-2.48c0.43-0.79,0.74-1.61,0.92-2.48
				c0.17-0.87,0.3-1.74,0.39-2.61c0.09-0.87,0.13-1.66,0.13-2.35c0-0.52,0-1,0-1.44c0-0.43,0-0.83,0-1.18
				c-0.18-0.52-0.26-1-0.26-1.44c0-0.43,0-0.83,0-1.18v-152.38h-40.58c-0.88,0.18-1.7,0.26-2.49,0.26c-0.79,0-1.53,0.09-2.23,0.26
				c-0.35,0.18-0.74,0.35-1.18,0.52c-0.44,0.18-0.83,0.35-1.18,0.52c-2.09,1.4-3.76,3.84-4.97,7.33c-1.22,3.49-2.27,7.24-3.14,11.26
				c-0.18,0.52-0.31,1.09-0.39,1.7c-0.09,0.61-0.22,1.18-0.39,1.7c-0.18,0.87-0.39,1.75-0.65,2.62c-0.26,0.87-0.48,1.75-0.65,2.62
				l-2.88,8.9l-1.31-57.07L1277.22,1787.59z"/>
			<path class="st1" d="M1501.31,1783.66c6.28,0.18,12.34,0.65,18.19,1.44c5.85,0.79,10.69,1.7,14.53,2.75
				c0.35,0,0.74,0.04,1.18,0.13c0.43,0.09,0.83,0.22,1.18,0.39l5.24,1.31l0.52,50.52l-11-26.7c-2.45-6.11-6.2-10.16-11.26-12.17
				c-5.07-2-11.61-3.18-19.63-3.53c-0.18,0-0.35,0-0.52,0c-0.18,0-0.35,0-0.52,0c-0.18,0-0.35,0-0.52,0c-0.18,0-0.35,0-0.52,0
				c-10.65,0-19.59,3.63-26.83,10.86c-7.24,7.24-10.86,15.93-10.86,26.05c0,6.63,2.14,12.35,6.42,17.15c4.27,4.8,8.94,8.86,14,12.17
				c2.79,1.75,5.45,3.27,7.98,4.58c2.53,1.31,4.75,2.4,6.68,3.27c1.39,0.7,2.75,1.4,4.06,2.09c1.31,0.7,2.66,1.4,4.06,2.09
				c12.74,6.46,24.04,13.53,33.9,21.2c9.86,7.68,14.96,18.76,15.31,33.25c0.35,17.45-5.33,30.8-17.02,40.05
				c-11.69,9.25-26.62,13.96-44.76,14.14c-0.88,0-1.75,0-2.62,0c-0.88,0-1.75-0.09-2.62-0.26c-2.97-0.18-5.94-0.48-8.9-0.92
				c-2.97-0.44-5.67-0.92-8.11-1.44c-2.09-0.52-4.02-0.96-5.76-1.31c-1.75-0.35-3.14-0.61-4.19-0.79l-11.26-3.14l-1.31-49.74
				l8.9,23.04c2.44,6.63,6.32,11.35,11.65,14.14c5.32,2.79,10.95,4.63,16.88,5.5c1.05,0.18,2.05,0.31,3.01,0.39
				c0.96,0.09,1.87,0.22,2.75,0.39c0.52,0,1,0.05,1.44,0.13c0.43,0.09,0.83,0.13,1.18,0.13c0.35,0,0.74,0,1.18,0
				c0.43,0,0.92,0,1.44,0c10.3,0,19.41-3.14,27.36-9.42c7.94-6.28,11.82-14.31,11.65-24.08c0-0.17,0-0.35,0-0.52
				c0-0.17,0-0.35,0-0.52c0-0.35,0-0.61,0-0.79c-0.52-9.25-3.62-16.36-9.29-21.33c-5.67-4.97-12.43-9.47-20.29-13.48
				c-2.27-1.22-4.58-2.44-6.94-3.66c-2.36-1.22-4.76-2.53-7.2-3.93c-3.14-1.74-6.15-3.4-9.03-4.97c-2.88-1.57-5.72-3.14-8.51-4.71
				c-8.73-5.06-15.88-10.73-21.47-17.02c-5.59-6.28-8.73-15.53-9.42-27.75c0-0.17,0-0.39,0-0.65s0-0.48,0-0.65c0-0.17,0-0.39,0-0.65
				s0-0.48,0-0.65c0-16.23,6.15-28.93,18.46-38.09c12.3-9.16,26.05-13.83,41.23-14V1783.66z"/>
		</g>
	</g>
</g>
<g id="Layer_3" class="st2">
	<path class="st3" d="M1528,980c-291.24,0-527.34,236.09-527.34,527.33C1000.65,1216.09,764.57,980,473.33,980
		c291.24,0,527.33-236.09,527.33-527.33C1000.67,743.91,1236.76,980,1528,980z"/>
</g>
</svg>
